solid Mod. Talryyn_NozFanDuct_Addition_RV2_5
   facet normal 0.000000e+000 -1.000000e+000 4.448009e-016
      outer loop
         vertex 2.090000e-001 1.080004e-001 3.561399e-007
         vertex 8.459000e+000 1.080004e-001 3.561399e-007
         vertex 2.090000e-001 1.080004e-001 7.799999e+000
      endloop
   endfacet
   facet normal 0.000000e+000 -1.000000e+000 4.448009e-016
      outer loop
         vertex 2.090000e-001 1.080004e-001 7.799999e+000
         vertex 8.459000e+000 1.080004e-001 3.561399e-007
         vertex 8.459000e+000 1.080004e-001 7.799999e+000
      endloop
   endfacet
   facet normal 1.000000e+000 -1.820532e-016 8.097741e-032
      outer loop
         vertex 8.459000e+000 4.672181e+000 2.450933e+000
         vertex 8.459000e+000 4.872334e+000 3.561399e-007
         vertex 8.459000e+000 4.857068e+000 2.635818e+000
      endloop
   endfacet
   facet normal 1.000000e+000 -1.820532e-016 8.097741e-032
      outer loop
         vertex 8.459000e+000 4.857068e+000 2.635818e+000
         vertex 8.459000e+000 4.872334e+000 3.561399e-007
         vertex 8.459000e+000 4.872334e+000 2.654309e+000
      endloop
   endfacet
   facet normal 1.000000e+000 -1.820532e-016 8.097741e-032
      outer loop
         vertex 8.459000e+000 1.080004e-001 3.561399e-007
         vertex 8.459000e+000 2.958000e+000 2.300962e+000
         vertex 8.459000e+000 2.743818e+000 2.450933e+000
      endloop
   endfacet
   facet normal 1.000000e+000 -1.820532e-016 8.097741e-032
      outer loop
         vertex 8.459000e+000 4.672181e+000 2.450933e+000
         vertex 8.459000e+000 4.458000e+000 2.300962e+000
         vertex 8.459000e+000 4.872334e+000 3.561399e-007
      endloop
   endfacet
   facet normal 1.000000e+000 -1.820532e-016 8.097741e-032
      outer loop
         vertex 8.459000e+000 4.872334e+000 3.561399e-007
         vertex 8.459000e+000 4.458000e+000 2.300962e+000
         vertex 8.459000e+000 4.221030e+000 2.190461e+000
      endloop
   endfacet
   facet normal 1.000000e+000 -1.820532e-016 8.097741e-032
      outer loop
         vertex 8.459000e+000 4.872334e+000 3.561399e-007
         vertex 8.459000e+000 4.221030e+000 2.190461e+000
         vertex 8.459000e+000 3.968474e+000 2.122788e+000
      endloop
   endfacet
   facet normal 1.000000e+000 -1.820532e-016 8.097741e-032
      outer loop
         vertex 8.459000e+000 2.743818e+000 2.450933e+000
         vertex 8.459000e+000 2.558934e+000 2.635818e+000
         vertex 8.459000e+000 1.080004e-001 3.561399e-007
      endloop
   endfacet
   facet normal 1.000000e+000 -1.820532e-016 8.097741e-032
      outer loop
         vertex 8.459000e+000 1.080004e-001 3.561399e-007
         vertex 8.459000e+000 2.558934e+000 2.635818e+000
         vertex 8.459000e+000 2.408961e+000 2.850000e+000
      endloop
   endfacet
   facet normal 1.000000e+000 -1.820532e-016 8.097741e-032
      outer loop
         vertex 8.459000e+000 1.080004e-001 3.561399e-007
         vertex 8.459000e+000 2.408961e+000 2.850000e+000
         vertex 8.459000e+000 2.298462e+000 3.086970e+000
      endloop
   endfacet
   facet normal 1.000000e+000 -1.820532e-016 8.097741e-032
      outer loop
         vertex 8.459000e+000 3.968474e+000 2.122788e+000
         vertex 8.459000e+000 3.708002e+000 2.100000e+000
         vertex 8.459000e+000 4.872334e+000 3.561399e-007
      endloop
   endfacet
   facet normal 1.000000e+000 -1.820532e-016 8.097741e-032
      outer loop
         vertex 8.459000e+000 4.872334e+000 3.561399e-007
         vertex 8.459000e+000 3.708002e+000 2.100000e+000
         vertex 8.459000e+000 3.447529e+000 2.122788e+000
      endloop
   endfacet
   facet normal 1.000000e+000 -1.820532e-016 8.097741e-032
      outer loop
         vertex 8.459000e+000 4.872334e+000 3.561399e-007
         vertex 8.459000e+000 3.447529e+000 2.122788e+000
         vertex 8.459000e+000 1.080004e-001 3.561399e-007
      endloop
   endfacet
   facet normal 1.000000e+000 -1.820532e-016 8.097741e-032
      outer loop
         vertex 8.459000e+000 1.080004e-001 3.561399e-007
         vertex 8.459000e+000 3.447529e+000 2.122788e+000
         vertex 8.459000e+000 3.194970e+000 2.190461e+000
      endloop
   endfacet
   facet normal 1.000000e+000 -1.820532e-016 8.097741e-032
      outer loop
         vertex 8.459000e+000 1.080004e-001 3.561399e-007
         vertex 8.459000e+000 3.194970e+000 2.190461e+000
         vertex 8.459000e+000 2.958000e+000 2.300962e+000
      endloop
   endfacet
   facet normal 1.000000e+000 -1.820532e-016 8.097741e-032
      outer loop
         vertex 8.459000e+000 2.298462e+000 4.113031e+000
         vertex 8.459000e+000 2.408961e+000 4.350000e+000
         vertex 8.459000e+000 1.080004e-001 7.799999e+000
      endloop
   endfacet
   facet normal 1.000000e+000 -1.820532e-016 8.097741e-032
      outer loop
         vertex 8.459000e+000 1.080004e-001 7.799999e+000
         vertex 8.459000e+000 2.408961e+000 4.350000e+000
         vertex 8.459000e+000 2.558934e+000 4.564182e+000
      endloop
   endfacet
   facet normal 1.000000e+000 -1.820532e-016 8.097741e-032
      outer loop
         vertex 8.459000e+000 1.080004e-001 7.799999e+000
         vertex 8.459000e+000 2.558934e+000 4.564182e+000
         vertex 8.459000e+000 2.743818e+000 4.749067e+000
      endloop
   endfacet
   facet normal 1.000000e+000 -1.820532e-016 8.097741e-032
      outer loop
         vertex 8.459000e+000 3.708002e+000 5.100000e+000
         vertex 8.459000e+000 3.968474e+000 5.077213e+000
         vertex 8.459000e+000 4.872334e+000 7.799999e+000
      endloop
   endfacet
   facet normal 1.000000e+000 -1.820532e-016 8.097741e-032
      outer loop
         vertex 8.459000e+000 4.872334e+000 7.799999e+000
         vertex 8.459000e+000 3.968474e+000 5.077213e+000
         vertex 8.459000e+000 4.221030e+000 5.009539e+000
      endloop
   endfacet
   facet normal 1.000000e+000 -1.820532e-016 8.097741e-032
      outer loop
         vertex 8.459000e+000 4.872334e+000 7.799999e+000
         vertex 8.459000e+000 4.221030e+000 5.009539e+000
         vertex 8.459000e+000 4.458000e+000 4.899037e+000
      endloop
   endfacet
   facet normal 1.000000e+000 -1.820532e-016 8.097741e-032
      outer loop
         vertex 8.459000e+000 4.458000e+000 4.899037e+000
         vertex 8.459000e+000 4.672181e+000 4.749067e+000
         vertex 8.459000e+000 4.872334e+000 7.799999e+000
      endloop
   endfacet
   facet normal 1.000000e+000 -1.820532e-016 8.097741e-032
      outer loop
         vertex 8.459000e+000 4.872334e+000 7.799999e+000
         vertex 8.459000e+000 4.672181e+000 4.749067e+000
         vertex 8.459000e+000 4.857068e+000 4.564182e+000
      endloop
   endfacet
   facet normal 1.000000e+000 -1.820532e-016 8.097741e-032
      outer loop
         vertex 8.459000e+000 4.872334e+000 7.799999e+000
         vertex 8.459000e+000 4.857068e+000 4.564182e+000
         vertex 8.459000e+000 4.872334e+000 4.545692e+000
      endloop
   endfacet
   facet normal 1.000000e+000 -1.820532e-016 8.097741e-032
      outer loop
         vertex 8.459000e+000 2.298462e+000 3.086970e+000
         vertex 8.459000e+000 2.230788e+000 3.339529e+000
         vertex 8.459000e+000 1.080004e-001 3.561399e-007
      endloop
   endfacet
   facet normal 1.000000e+000 -1.820532e-016 8.097741e-032
      outer loop
         vertex 8.459000e+000 1.080004e-001 3.561399e-007
         vertex 8.459000e+000 2.230788e+000 3.339529e+000
         vertex 8.459000e+000 2.208000e+000 3.600001e+000
      endloop
   endfacet
   facet normal 1.000000e+000 -1.820532e-016 8.097741e-032
      outer loop
         vertex 8.459000e+000 1.080004e-001 3.561399e-007
         vertex 8.459000e+000 2.208000e+000 3.600001e+000
         vertex 8.459000e+000 1.080004e-001 7.799999e+000
      endloop
   endfacet
   facet normal 1.000000e+000 -1.820532e-016 8.097741e-032
      outer loop
         vertex 8.459000e+000 1.080004e-001 7.799999e+000
         vertex 8.459000e+000 2.208000e+000 3.600001e+000
         vertex 8.459000e+000 2.230788e+000 3.860473e+000
      endloop
   endfacet
   facet normal 1.000000e+000 -1.820532e-016 8.097741e-032
      outer loop
         vertex 8.459000e+000 1.080004e-001 7.799999e+000
         vertex 8.459000e+000 2.230788e+000 3.860473e+000
         vertex 8.459000e+000 2.298462e+000 4.113031e+000
      endloop
   endfacet
   facet normal 1.000000e+000 -1.820532e-016 8.097741e-032
      outer loop
         vertex 8.459000e+000 2.743818e+000 4.749067e+000
         vertex 8.459000e+000 2.958000e+000 4.899037e+000
         vertex 8.459000e+000 1.080004e-001 7.799999e+000
      endloop
   endfacet
   facet normal 1.000000e+000 -1.820532e-016 8.097741e-032
      outer loop
         vertex 8.459000e+000 1.080004e-001 7.799999e+000
         vertex 8.459000e+000 2.958000e+000 4.899037e+000
         vertex 8.459000e+000 3.194970e+000 5.009539e+000
      endloop
   endfacet
   facet normal 1.000000e+000 -1.820532e-016 8.097741e-032
      outer loop
         vertex 8.459000e+000 1.080004e-001 7.799999e+000
         vertex 8.459000e+000 3.194970e+000 5.009539e+000
         vertex 8.459000e+000 4.872334e+000 7.799999e+000
      endloop
   endfacet
   facet normal 1.000000e+000 -1.820532e-016 8.097741e-032
      outer loop
         vertex 8.459000e+000 4.872334e+000 7.799999e+000
         vertex 8.459000e+000 3.194970e+000 5.009539e+000
         vertex 8.459000e+000 3.447529e+000 5.077213e+000
      endloop
   endfacet
   facet normal 1.000000e+000 -1.820532e-016 8.097741e-032
      outer loop
         vertex 8.459000e+000 4.872334e+000 7.799999e+000
         vertex 8.459000e+000 3.447529e+000 5.077213e+000
         vertex 8.459000e+000 3.708002e+000 5.100000e+000
      endloop
   endfacet
   facet normal 0.000000e+000 -1.000000e+000 4.448009e-016
      outer loop
         vertex 8.459000e+000 4.872334e+000 3.561399e-007
         vertex 1.945900e+001 4.872334e+000 3.561399e-007
         vertex 8.459000e+000 4.872334e+000 2.654309e+000
      endloop
   endfacet
   facet normal 0.000000e+000 -1.000000e+000 4.448009e-016
      outer loop
         vertex 8.459000e+000 4.872334e+000 2.654309e+000
         vertex 1.945900e+001 4.872334e+000 3.561399e-007
         vertex 1.945900e+001 4.872334e+000 7.799999e+000
      endloop
   endfacet
   facet normal 0.000000e+000 -1.000000e+000 4.448009e-016
      outer loop
         vertex 8.459000e+000 4.872334e+000 2.654309e+000
         vertex 1.945900e+001 4.872334e+000 7.799999e+000
         vertex 8.459000e+000 4.872334e+000 4.545692e+000
      endloop
   endfacet
   facet normal 0.000000e+000 -1.000000e+000 4.448009e-016
      outer loop
         vertex 8.459000e+000 4.872334e+000 4.545692e+000
         vertex 1.945900e+001 4.872334e+000 7.799999e+000
         vertex 8.459000e+000 4.872334e+000 7.799999e+000
      endloop
   endfacet
   facet normal -1.000000e+000 0.000000e+000 -0.000000e+000
      outer loop
         vertex 1.945900e+001 4.872334e+000 3.561399e-007
         vertex 1.945900e+001 2.472332e+000 3.561399e-007
         vertex 1.945900e+001 4.872334e+000 7.799999e+000
      endloop
   endfacet
   facet normal -1.000000e+000 0.000000e+000 -0.000000e+000
      outer loop
         vertex 1.945900e+001 4.872334e+000 7.799999e+000
         vertex 1.945900e+001 2.472332e+000 3.561399e-007
         vertex 1.945900e+001 2.472332e+000 7.799999e+000
      endloop
   endfacet
   facet normal 0.000000e+000 -1.000000e+000 4.448009e-016
      outer loop
         vertex 1.945900e+001 2.472332e+000 3.561399e-007
         vertex 2.110900e+001 2.472332e+000 3.561399e-007
         vertex 1.945900e+001 2.472332e+000 7.799999e+000
      endloop
   endfacet
   facet normal 0.000000e+000 -1.000000e+000 4.448009e-016
      outer loop
         vertex 1.945900e+001 2.472332e+000 7.799999e+000
         vertex 2.110900e+001 2.472332e+000 3.561399e-007
         vertex 2.110900e+001 2.472332e+000 7.799999e+000
      endloop
   endfacet
   facet normal 1.000000e+000 0.000000e+000 0.000000e+000
      outer loop
         vertex 2.110900e+001 2.472332e+000 3.561399e-007
         vertex 2.110900e+001 1.090800e+001 3.561399e-007
         vertex 2.110900e+001 2.472332e+000 7.799999e+000
      endloop
   endfacet
   facet normal 1.000000e+000 0.000000e+000 0.000000e+000
      outer loop
         vertex 2.110900e+001 2.472332e+000 7.799999e+000
         vertex 2.110900e+001 1.090800e+001 3.561399e-007
         vertex 2.110900e+001 1.090800e+001 7.799999e+000
      endloop
   endfacet
   facet normal 0.000000e+000 1.000000e+000 -4.448009e-016
      outer loop
         vertex 2.110900e+001 1.090800e+001 3.561399e-007
         vertex 1.195900e+001 1.090800e+001 3.561399e-007
         vertex 2.110900e+001 1.090800e+001 7.799999e+000
      endloop
   endfacet
   facet normal 0.000000e+000 1.000000e+000 -4.448009e-016
      outer loop
         vertex 2.110900e+001 1.090800e+001 7.799999e+000
         vertex 1.195900e+001 1.090800e+001 3.561399e-007
         vertex 1.195900e+001 1.090800e+001 7.799999e+000
      endloop
   endfacet
   facet normal -1.000000e+000 0.000000e+000 -0.000000e+000
      outer loop
         vertex 1.195900e+001 1.090800e+001 3.561399e-007
         vertex 1.195900e+001 7.707999e+000 3.561399e-007
         vertex 1.195900e+001 1.090800e+001 7.799999e+000
      endloop
   endfacet
   facet normal -1.000000e+000 0.000000e+000 -0.000000e+000
      outer loop
         vertex 1.195900e+001 1.090800e+001 7.799999e+000
         vertex 1.195900e+001 7.707999e+000 3.561399e-007
         vertex 1.195900e+001 7.707999e+000 7.799999e+000
      endloop
   endfacet
   facet normal 0.000000e+000 1.000000e+000 -4.448009e-016
      outer loop
         vertex 1.195900e+001 7.707999e+000 3.561399e-007
         vertex 2.090000e-001 7.707999e+000 3.561399e-007
         vertex 1.195900e+001 7.707999e+000 7.799999e+000
      endloop
   endfacet
   facet normal 0.000000e+000 1.000000e+000 -4.448009e-016
      outer loop
         vertex 1.195900e+001 7.707999e+000 7.799999e+000
         vertex 2.090000e-001 7.707999e+000 3.561399e-007
         vertex 2.090000e-001 7.707999e+000 7.799999e+000
      endloop
   endfacet
   facet normal -1.000000e+000 -1.141265e-016 5.076359e-032
      outer loop
         vertex 2.090000e-001 7.707999e+000 7.799999e+000
         vertex 2.090000e-001 7.707999e+000 3.561399e-007
         vertex 2.090000e-001 5.208001e+000 3.600001e+000
      endloop
   endfacet
   facet normal -1.000000e+000 -1.141265e-016 5.076359e-032
      outer loop
         vertex 2.090000e-001 4.221030e+000 2.190461e+000
         vertex 2.090000e-001 4.458000e+000 2.300962e+000
         vertex 2.090000e-001 7.707999e+000 3.561399e-007
      endloop
   endfacet
   facet normal -1.000000e+000 -1.141265e-016 5.076359e-032
      outer loop
         vertex 2.090000e-001 5.007037e+000 2.850000e+000
         vertex 2.090000e-001 5.117540e+000 3.086970e+000
         vertex 2.090000e-001 7.707999e+000 3.561399e-007
      endloop
   endfacet
   facet normal -1.000000e+000 -1.141265e-016 5.076359e-032
      outer loop
         vertex 2.090000e-001 7.707999e+000 3.561399e-007
         vertex 2.090000e-001 5.117540e+000 3.086970e+000
         vertex 2.090000e-001 5.185214e+000 3.339529e+000
      endloop
   endfacet
   facet normal -1.000000e+000 -1.141265e-016 5.076359e-032
      outer loop
         vertex 2.090000e-001 7.707999e+000 3.561399e-007
         vertex 2.090000e-001 5.185214e+000 3.339529e+000
         vertex 2.090000e-001 5.208001e+000 3.600001e+000
      endloop
   endfacet
   facet normal -1.000000e+000 -1.141265e-016 5.076359e-032
      outer loop
         vertex 2.090000e-001 5.208001e+000 3.600001e+000
         vertex 2.090000e-001 5.185214e+000 3.860473e+000
         vertex 2.090000e-001 7.707999e+000 7.799999e+000
      endloop
   endfacet
   facet normal -1.000000e+000 -1.141265e-016 5.076359e-032
      outer loop
         vertex 2.090000e-001 7.707999e+000 7.799999e+000
         vertex 2.090000e-001 5.185214e+000 3.860473e+000
         vertex 2.090000e-001 5.117540e+000 4.113031e+000
      endloop
   endfacet
   facet normal -1.000000e+000 -1.141265e-016 5.076359e-032
      outer loop
         vertex 2.090000e-001 7.707999e+000 7.799999e+000
         vertex 2.090000e-001 5.117540e+000 4.113031e+000
         vertex 2.090000e-001 5.007037e+000 4.350000e+000
      endloop
   endfacet
   facet normal -1.000000e+000 -1.141265e-016 5.076359e-032
      outer loop
         vertex 2.090000e-001 4.458000e+000 2.300962e+000
         vertex 2.090000e-001 4.672181e+000 2.450933e+000
         vertex 2.090000e-001 7.707999e+000 3.561399e-007
      endloop
   endfacet
   facet normal -1.000000e+000 -1.141265e-016 5.076359e-032
      outer loop
         vertex 2.090000e-001 7.707999e+000 3.561399e-007
         vertex 2.090000e-001 4.672181e+000 2.450933e+000
         vertex 2.090000e-001 4.857068e+000 2.635818e+000
      endloop
   endfacet
   facet normal -1.000000e+000 -1.141265e-016 5.076359e-032
      outer loop
         vertex 2.090000e-001 7.707999e+000 3.561399e-007
         vertex 2.090000e-001 4.857068e+000 2.635818e+000
         vertex 2.090000e-001 5.007037e+000 2.850000e+000
      endloop
   endfacet
   facet normal -1.000000e+000 -1.141265e-016 5.076359e-032
      outer loop
         vertex 2.090000e-001 5.007037e+000 4.350000e+000
         vertex 2.090000e-001 4.857068e+000 4.564182e+000
         vertex 2.090000e-001 7.707999e+000 7.799999e+000
      endloop
   endfacet
   facet normal -1.000000e+000 -1.141265e-016 5.076359e-032
      outer loop
         vertex 2.090000e-001 7.707999e+000 7.799999e+000
         vertex 2.090000e-001 4.857068e+000 4.564182e+000
         vertex 2.090000e-001 4.672181e+000 4.749067e+000
      endloop
   endfacet
   facet normal -1.000000e+000 -1.141265e-016 5.076359e-032
      outer loop
         vertex 2.090000e-001 7.707999e+000 7.799999e+000
         vertex 2.090000e-001 4.672181e+000 4.749067e+000
         vertex 2.090000e-001 4.458000e+000 4.899037e+000
      endloop
   endfacet
   facet normal -1.000000e+000 -1.141265e-016 5.076359e-032
      outer loop
         vertex 2.090000e-001 2.230788e+000 3.339529e+000
         vertex 2.090000e-001 2.298462e+000 3.086970e+000
         vertex 2.090000e-001 1.080004e-001 3.561399e-007
      endloop
   endfacet
   facet normal -1.000000e+000 -1.141265e-016 5.076359e-032
      outer loop
         vertex 2.090000e-001 2.743818e+000 2.450933e+000
         vertex 2.090000e-001 2.958000e+000 2.300962e+000
         vertex 2.090000e-001 1.080004e-001 3.561399e-007
      endloop
   endfacet
   facet normal -1.000000e+000 -1.141265e-016 5.076359e-032
      outer loop
         vertex 2.090000e-001 1.080004e-001 3.561399e-007
         vertex 2.090000e-001 2.958000e+000 2.300962e+000
         vertex 2.090000e-001 3.194970e+000 2.190461e+000
      endloop
   endfacet
   facet normal -1.000000e+000 -1.141265e-016 5.076359e-032
      outer loop
         vertex 2.090000e-001 3.194970e+000 2.190461e+000
         vertex 2.090000e-001 3.447529e+000 2.122788e+000
         vertex 2.090000e-001 1.080004e-001 3.561399e-007
      endloop
   endfacet
   facet normal -1.000000e+000 -1.141265e-016 5.076359e-032
      outer loop
         vertex 2.090000e-001 1.080004e-001 3.561399e-007
         vertex 2.090000e-001 3.447529e+000 2.122788e+000
         vertex 2.090000e-001 3.708002e+000 2.100000e+000
      endloop
   endfacet
   facet normal -1.000000e+000 -1.141265e-016 5.076359e-032
      outer loop
         vertex 2.090000e-001 1.080004e-001 3.561399e-007
         vertex 2.090000e-001 3.708002e+000 2.100000e+000
         vertex 2.090000e-001 7.707999e+000 3.561399e-007
      endloop
   endfacet
   facet normal -1.000000e+000 -1.141265e-016 5.076359e-032
      outer loop
         vertex 2.090000e-001 7.707999e+000 3.561399e-007
         vertex 2.090000e-001 3.708002e+000 2.100000e+000
         vertex 2.090000e-001 3.968474e+000 2.122788e+000
      endloop
   endfacet
   facet normal -1.000000e+000 -1.141265e-016 5.076359e-032
      outer loop
         vertex 2.090000e-001 7.707999e+000 3.561399e-007
         vertex 2.090000e-001 3.968474e+000 2.122788e+000
         vertex 2.090000e-001 4.221030e+000 2.190461e+000
      endloop
   endfacet
   facet normal -1.000000e+000 -1.141265e-016 5.076359e-032
      outer loop
         vertex 2.090000e-001 3.708002e+000 5.100000e+000
         vertex 2.090000e-001 1.080004e-001 7.799999e+000
         vertex 2.090000e-001 3.968474e+000 5.077213e+000
      endloop
   endfacet
   facet normal -1.000000e+000 -1.141265e-016 5.076359e-032
      outer loop
         vertex 2.090000e-001 3.968474e+000 5.077213e+000
         vertex 2.090000e-001 1.080004e-001 7.799999e+000
         vertex 2.090000e-001 7.707999e+000 7.799999e+000
      endloop
   endfacet
   facet normal -1.000000e+000 -1.141265e-016 5.076359e-032
      outer loop
         vertex 2.090000e-001 3.968474e+000 5.077213e+000
         vertex 2.090000e-001 7.707999e+000 7.799999e+000
         vertex 2.090000e-001 4.221030e+000 5.009539e+000
      endloop
   endfacet
   facet normal -1.000000e+000 -1.141265e-016 5.076359e-032
      outer loop
         vertex 2.090000e-001 4.221030e+000 5.009539e+000
         vertex 2.090000e-001 7.707999e+000 7.799999e+000
         vertex 2.090000e-001 4.458000e+000 4.899037e+000
      endloop
   endfacet
   facet normal -1.000000e+000 -1.141265e-016 5.076359e-032
      outer loop
         vertex 2.090000e-001 2.298462e+000 3.086970e+000
         vertex 2.090000e-001 2.408961e+000 2.850000e+000
         vertex 2.090000e-001 1.080004e-001 3.561399e-007
      endloop
   endfacet
   facet normal -1.000000e+000 -1.141265e-016 5.076359e-032
      outer loop
         vertex 2.090000e-001 1.080004e-001 3.561399e-007
         vertex 2.090000e-001 2.408961e+000 2.850000e+000
         vertex 2.090000e-001 2.558934e+000 2.635818e+000
      endloop
   endfacet
   facet normal -1.000000e+000 -1.141265e-016 5.076359e-032
      outer loop
         vertex 2.090000e-001 1.080004e-001 3.561399e-007
         vertex 2.090000e-001 2.558934e+000 2.635818e+000
         vertex 2.090000e-001 2.743818e+000 2.450933e+000
      endloop
   endfacet
   facet normal -1.000000e+000 -1.141265e-016 5.076359e-032
      outer loop
         vertex 2.090000e-001 3.708002e+000 5.100000e+000
         vertex 2.090000e-001 3.447529e+000 5.077213e+000
         vertex 2.090000e-001 1.080004e-001 7.799999e+000
      endloop
   endfacet
   facet normal -1.000000e+000 -1.141265e-016 5.076359e-032
      outer loop
         vertex 2.090000e-001 1.080004e-001 7.799999e+000
         vertex 2.090000e-001 3.447529e+000 5.077213e+000
         vertex 2.090000e-001 3.194970e+000 5.009539e+000
      endloop
   endfacet
   facet normal -1.000000e+000 -1.141265e-016 5.076359e-032
      outer loop
         vertex 2.090000e-001 1.080004e-001 7.799999e+000
         vertex 2.090000e-001 3.194970e+000 5.009539e+000
         vertex 2.090000e-001 2.958000e+000 4.899037e+000
      endloop
   endfacet
   facet normal -1.000000e+000 -1.141265e-016 5.076359e-032
      outer loop
         vertex 2.090000e-001 2.958000e+000 4.899037e+000
         vertex 2.090000e-001 2.743818e+000 4.749067e+000
         vertex 2.090000e-001 1.080004e-001 7.799999e+000
      endloop
   endfacet
   facet normal -1.000000e+000 -1.141265e-016 5.076359e-032
      outer loop
         vertex 2.090000e-001 1.080004e-001 7.799999e+000
         vertex 2.090000e-001 2.743818e+000 4.749067e+000
         vertex 2.090000e-001 2.558934e+000 4.564182e+000
      endloop
   endfacet
   facet normal -1.000000e+000 -1.141265e-016 5.076359e-032
      outer loop
         vertex 2.090000e-001 1.080004e-001 7.799999e+000
         vertex 2.090000e-001 2.558934e+000 4.564182e+000
         vertex 2.090000e-001 2.408961e+000 4.350000e+000
      endloop
   endfacet
   facet normal -1.000000e+000 -1.141265e-016 5.076359e-032
      outer loop
         vertex 2.090000e-001 2.408961e+000 4.350000e+000
         vertex 2.090000e-001 2.298462e+000 4.113031e+000
         vertex 2.090000e-001 1.080004e-001 7.799999e+000
      endloop
   endfacet
   facet normal -1.000000e+000 -1.141265e-016 5.076359e-032
      outer loop
         vertex 2.090000e-001 1.080004e-001 7.799999e+000
         vertex 2.090000e-001 2.298462e+000 4.113031e+000
         vertex 2.090000e-001 2.230788e+000 3.860473e+000
      endloop
   endfacet
   facet normal -1.000000e+000 -1.141265e-016 5.076359e-032
      outer loop
         vertex 2.090000e-001 1.080004e-001 7.799999e+000
         vertex 2.090000e-001 2.230788e+000 3.860473e+000
         vertex 2.090000e-001 1.080004e-001 3.561399e-007
      endloop
   endfacet
   facet normal -1.000000e+000 -1.141265e-016 5.076359e-032
      outer loop
         vertex 2.090000e-001 1.080004e-001 3.561399e-007
         vertex 2.090000e-001 2.230788e+000 3.860473e+000
         vertex 2.090000e-001 2.208000e+000 3.600001e+000
      endloop
   endfacet
   facet normal -1.000000e+000 -1.141265e-016 5.076359e-032
      outer loop
         vertex 2.090000e-001 1.080004e-001 3.561399e-007
         vertex 2.090000e-001 2.208000e+000 3.600001e+000
         vertex 2.090000e-001 2.230788e+000 3.339529e+000
      endloop
   endfacet
   facet normal -0.000000e+000 4.448009e-016 1.000000e+000
      outer loop
         vertex 1.945900e+001 2.472332e+000 7.799999e+000
         vertex 2.110900e+001 2.472332e+000 7.799999e+000
         vertex 1.945900e+001 4.872334e+000 7.799999e+000
      endloop
   endfacet
   facet normal -0.000000e+000 4.448009e-016 1.000000e+000
      outer loop
         vertex 1.945900e+001 4.872334e+000 7.799999e+000
         vertex 2.110900e+001 2.472332e+000 7.799999e+000
         vertex 2.110900e+001 1.090800e+001 7.799999e+000
      endloop
   endfacet
   facet normal -0.000000e+000 4.448009e-016 1.000000e+000
      outer loop
         vertex 2.090000e-001 1.080004e-001 7.799999e+000
         vertex 8.459000e+000 1.080004e-001 7.799999e+000
         vertex 2.090000e-001 7.707999e+000 7.799999e+000
      endloop
   endfacet
   facet normal -0.000000e+000 4.448009e-016 1.000000e+000
      outer loop
         vertex 2.090000e-001 7.707999e+000 7.799999e+000
         vertex 8.459000e+000 1.080004e-001 7.799999e+000
         vertex 8.459000e+000 4.872334e+000 7.799999e+000
      endloop
   endfacet
   facet normal -0.000000e+000 4.448009e-016 1.000000e+000
      outer loop
         vertex 2.090000e-001 7.707999e+000 7.799999e+000
         vertex 8.459000e+000 4.872334e+000 7.799999e+000
         vertex 1.195900e+001 7.707999e+000 7.799999e+000
      endloop
   endfacet
   facet normal -0.000000e+000 4.448009e-016 1.000000e+000
      outer loop
         vertex 1.195900e+001 7.707999e+000 7.799999e+000
         vertex 8.459000e+000 4.872334e+000 7.799999e+000
         vertex 1.945900e+001 4.872334e+000 7.799999e+000
      endloop
   endfacet
   facet normal -0.000000e+000 4.448009e-016 1.000000e+000
      outer loop
         vertex 1.195900e+001 7.707999e+000 7.799999e+000
         vertex 1.945900e+001 4.872334e+000 7.799999e+000
         vertex 1.195900e+001 1.090800e+001 7.799999e+000
      endloop
   endfacet
   facet normal -0.000000e+000 4.448009e-016 1.000000e+000
      outer loop
         vertex 1.195900e+001 1.090800e+001 7.799999e+000
         vertex 1.945900e+001 4.872334e+000 7.799999e+000
         vertex 2.110900e+001 1.090800e+001 7.799999e+000
      endloop
   endfacet
   facet normal 0.000000e+000 -4.448009e-016 -1.000000e+000
      outer loop
         vertex 8.459000e+000 1.080004e-001 3.561399e-007
         vertex 2.090000e-001 1.080004e-001 3.561399e-007
         vertex 8.459000e+000 4.872334e+000 3.561399e-007
      endloop
   endfacet
   facet normal 0.000000e+000 -4.448009e-016 -1.000000e+000
      outer loop
         vertex 8.459000e+000 4.872334e+000 3.561399e-007
         vertex 2.090000e-001 1.080004e-001 3.561399e-007
         vertex 2.090000e-001 7.707999e+000 3.561399e-007
      endloop
   endfacet
   facet normal 0.000000e+000 -4.448009e-016 -1.000000e+000
      outer loop
         vertex 8.459000e+000 4.872334e+000 3.561399e-007
         vertex 2.090000e-001 7.707999e+000 3.561399e-007
         vertex 1.945900e+001 4.872334e+000 3.561399e-007
      endloop
   endfacet
   facet normal 0.000000e+000 -4.448009e-016 -1.000000e+000
      outer loop
         vertex 1.945900e+001 4.872334e+000 3.561399e-007
         vertex 2.090000e-001 7.707999e+000 3.561399e-007
         vertex 1.195900e+001 7.707999e+000 3.561399e-007
      endloop
   endfacet
   facet normal 0.000000e+000 -4.448009e-016 -1.000000e+000
      outer loop
         vertex 2.110900e+001 2.472332e+000 3.561399e-007
         vertex 1.945900e+001 2.472332e+000 3.561399e-007
         vertex 1.945900e+001 4.872334e+000 3.561399e-007
      endloop
   endfacet
   facet normal 0.000000e+000 -4.448009e-016 -1.000000e+000
      outer loop
         vertex 1.195900e+001 7.707999e+000 3.561399e-007
         vertex 1.195900e+001 1.090800e+001 3.561399e-007
         vertex 1.945900e+001 4.872334e+000 3.561399e-007
      endloop
   endfacet
   facet normal 0.000000e+000 -4.448009e-016 -1.000000e+000
      outer loop
         vertex 1.945900e+001 4.872334e+000 3.561399e-007
         vertex 1.195900e+001 1.090800e+001 3.561399e-007
         vertex 2.110900e+001 1.090800e+001 3.561399e-007
      endloop
   endfacet
   facet normal 0.000000e+000 -4.448009e-016 -1.000000e+000
      outer loop
         vertex 1.945900e+001 4.872334e+000 3.561399e-007
         vertex 2.110900e+001 1.090800e+001 3.561399e-007
         vertex 2.110900e+001 2.472332e+000 3.561399e-007
      endloop
   endfacet
   facet normal -1.000000e+000 1.820532e-016 -8.097741e-032
      outer loop
         vertex 8.459000e+000 5.117540e+000 3.086970e+000
         vertex 8.459000e+000 5.007037e+000 2.850000e+000
         vertex 8.459000e+000 5.007037e+000 4.350000e+000
      endloop
   endfacet
   facet normal -1.000000e+000 1.820532e-016 -8.097741e-032
      outer loop
         vertex 8.459000e+000 5.007037e+000 4.350000e+000
         vertex 8.459000e+000 5.007037e+000 2.850000e+000
         vertex 8.459000e+000 4.872334e+000 2.654309e+000
      endloop
   endfacet
   facet normal -1.000000e+000 1.820532e-016 -8.097741e-032
      outer loop
         vertex 8.459000e+000 5.007037e+000 4.350000e+000
         vertex 8.459000e+000 4.872334e+000 2.654309e+000
         vertex 8.459000e+000 4.872334e+000 4.545692e+000
      endloop
   endfacet
   facet normal -1.000000e+000 1.820532e-016 -8.097741e-032
      outer loop
         vertex 8.459000e+000 5.007037e+000 4.350000e+000
         vertex 8.459000e+000 5.117540e+000 4.113031e+000
         vertex 8.459000e+000 5.117540e+000 3.086970e+000
      endloop
   endfacet
   facet normal -1.000000e+000 1.820532e-016 -8.097741e-032
      outer loop
         vertex 8.459000e+000 5.117540e+000 3.086970e+000
         vertex 8.459000e+000 5.117540e+000 4.113031e+000
         vertex 8.459000e+000 5.185214e+000 3.860473e+000
      endloop
   endfacet
   facet normal -1.000000e+000 1.820532e-016 -8.097741e-032
      outer loop
         vertex 8.459000e+000 5.117540e+000 3.086970e+000
         vertex 8.459000e+000 5.185214e+000 3.860473e+000
         vertex 8.459000e+000 5.185214e+000 3.339529e+000
      endloop
   endfacet
   facet normal -1.000000e+000 1.820532e-016 -8.097741e-032
      outer loop
         vertex 8.459000e+000 5.185214e+000 3.339529e+000
         vertex 8.459000e+000 5.185214e+000 3.860473e+000
         vertex 8.459000e+000 5.208001e+000 3.600001e+000
      endloop
   endfacet
   facet normal 0.000000e+000 -8.936031e-001 4.488580e-001
      outer loop
         vertex 2.090000e-001 5.007037e+000 2.850000e+000
         vertex 8.459000e+000 5.007037e+000 2.850000e+000
         vertex 2.090000e-001 5.117540e+000 3.086970e+000
      endloop
   endfacet
   facet normal 0.000000e+000 -9.182422e-001 3.960194e-001
      outer loop
         vertex 2.090000e-001 5.117540e+000 3.086970e+000
         vertex 8.459000e+000 5.007037e+000 2.850000e+000
         vertex 8.459000e+000 5.117540e+000 3.086970e+000
      endloop
   endfacet
   facet normal 0.000000e+000 -9.579706e-001 2.868663e-001
      outer loop
         vertex 2.090000e-001 5.117540e+000 3.086970e+000
         vertex 8.459000e+000 5.117540e+000 3.086970e+000
         vertex 2.090000e-001 5.185214e+000 3.339529e+000
      endloop
   endfacet
   facet normal 0.000000e+000 -9.730600e-001 2.305519e-001
      outer loop
         vertex 2.090000e-001 5.185214e+000 3.339529e+000
         vertex 8.459000e+000 5.117540e+000 3.086970e+000
         vertex 8.459000e+000 5.185214e+000 3.339529e+000
      endloop
   endfacet
   facet normal 0.000000e+000 -9.932307e-001 1.161583e-001
      outer loop
         vertex 2.090000e-001 5.185214e+000 3.339529e+000
         vertex 8.459000e+000 5.185214e+000 3.339529e+000
         vertex 2.090000e-001 5.208001e+000 3.600001e+000
      endloop
   endfacet
   facet normal 0.000000e+000 -9.983120e-001 5.807914e-002
      outer loop
         vertex 2.090000e-001 5.208001e+000 3.600001e+000
         vertex 8.459000e+000 5.185214e+000 3.339529e+000
         vertex 8.459000e+000 5.208001e+000 3.600001e+000
      endloop
   endfacet
   facet normal 0.000000e+000 -9.983120e-001 -5.807914e-002
      outer loop
         vertex 2.090000e-001 5.208001e+000 3.600001e+000
         vertex 8.459000e+000 5.208001e+000 3.600001e+000
         vertex 2.090000e-001 5.185214e+000 3.860473e+000
      endloop
   endfacet
   facet normal 0.000000e+000 -9.932307e-001 -1.161583e-001
      outer loop
         vertex 2.090000e-001 5.185214e+000 3.860473e+000
         vertex 8.459000e+000 5.208001e+000 3.600001e+000
         vertex 8.459000e+000 5.185214e+000 3.860473e+000
      endloop
   endfacet
   facet normal 0.000000e+000 -9.730600e-001 -2.305519e-001
      outer loop
         vertex 2.090000e-001 5.185214e+000 3.860473e+000
         vertex 8.459000e+000 5.185214e+000 3.860473e+000
         vertex 2.090000e-001 5.117540e+000 4.113031e+000
      endloop
   endfacet
   facet normal 0.000000e+000 -9.579706e-001 -2.868663e-001
      outer loop
         vertex 2.090000e-001 5.117540e+000 4.113031e+000
         vertex 8.459000e+000 5.185214e+000 3.860473e+000
         vertex 8.459000e+000 5.117540e+000 4.113031e+000
      endloop
   endfacet
   facet normal 0.000000e+000 -9.182422e-001 -3.960194e-001
      outer loop
         vertex 2.090000e-001 5.117540e+000 4.113031e+000
         vertex 8.459000e+000 5.117540e+000 4.113031e+000
         vertex 2.090000e-001 5.007037e+000 4.350000e+000
      endloop
   endfacet
   facet normal 0.000000e+000 -8.936031e-001 -4.488580e-001
      outer loop
         vertex 8.459000e+000 5.117540e+000 4.113031e+000
         vertex 8.459000e+000 5.007037e+000 4.350000e+000
         vertex 2.090000e-001 5.007037e+000 4.350000e+000
      endloop
   endfacet
   facet normal 0.000000e+000 -8.384308e-001 -5.450081e-001
      outer loop
         vertex 2.090000e-001 5.007037e+000 4.350000e+000
         vertex 8.459000e+000 5.007037e+000 4.350000e+000
         vertex 8.459000e+000 4.872334e+000 4.545692e+000
      endloop
   endfacet
   facet normal 0.000000e+000 -8.052605e-001 -5.929212e-001
      outer loop
         vertex 2.090000e-001 5.007037e+000 4.350000e+000
         vertex 8.459000e+000 4.872334e+000 4.545692e+000
         vertex 2.090000e-001 4.857068e+000 4.564182e+000
      endloop
   endfacet
   facet normal 0.000000e+000 -7.694585e-001 -6.386968e-001
      outer loop
         vertex 2.090000e-001 4.857068e+000 4.564182e+000
         vertex 8.459000e+000 4.872334e+000 4.545692e+000
         vertex 8.459000e+000 4.857068e+000 4.564182e+000
      endloop
   endfacet
   facet normal 0.000000e+000 -7.274188e-001 -6.861938e-001
      outer loop
         vertex 2.090000e-001 4.857068e+000 4.564182e+000
         vertex 8.459000e+000 4.857068e+000 4.564182e+000
         vertex 2.090000e-001 4.672181e+000 4.749067e+000
      endloop
   endfacet
   facet normal 0.000000e+000 -6.861938e-001 -7.274188e-001
      outer loop
         vertex 2.090000e-001 4.672181e+000 4.749067e+000
         vertex 8.459000e+000 4.857068e+000 4.564182e+000
         vertex 8.459000e+000 4.672181e+000 4.749067e+000
      endloop
   endfacet
   facet normal 0.000000e+000 -5.972114e-001 -8.020839e-001
      outer loop
         vertex 2.090000e-001 4.672181e+000 4.749067e+000
         vertex 8.459000e+000 4.672181e+000 4.749067e+000
         vertex 2.090000e-001 4.458000e+000 4.899037e+000
      endloop
   endfacet
   facet normal 0.000000e+000 -5.494540e-001 -8.355240e-001
      outer loop
         vertex 2.090000e-001 4.458000e+000 4.899037e+000
         vertex 8.459000e+000 4.672181e+000 4.749067e+000
         vertex 8.459000e+000 4.458000e+000 4.899037e+000
      endloop
   endfacet
   facet normal 0.000000e+000 -4.488580e-001 -8.936031e-001
      outer loop
         vertex 2.090000e-001 4.458000e+000 4.899037e+000
         vertex 8.459000e+000 4.458000e+000 4.899037e+000
         vertex 2.090000e-001 4.221030e+000 5.009539e+000
      endloop
   endfacet
   facet normal 0.000000e+000 -3.960194e-001 -9.182422e-001
      outer loop
         vertex 2.090000e-001 4.221030e+000 5.009539e+000
         vertex 8.459000e+000 4.458000e+000 4.899037e+000
         vertex 8.459000e+000 4.221030e+000 5.009539e+000
      endloop
   endfacet
   facet normal 0.000000e+000 -2.868663e-001 -9.579706e-001
      outer loop
         vertex 2.090000e-001 4.221030e+000 5.009539e+000
         vertex 8.459000e+000 4.221030e+000 5.009539e+000
         vertex 2.090000e-001 3.968474e+000 5.077213e+000
      endloop
   endfacet
   facet normal 0.000000e+000 -2.305519e-001 -9.730600e-001
      outer loop
         vertex 2.090000e-001 3.968474e+000 5.077213e+000
         vertex 8.459000e+000 4.221030e+000 5.009539e+000
         vertex 8.459000e+000 3.968474e+000 5.077213e+000
      endloop
   endfacet
   facet normal 0.000000e+000 -1.161583e-001 -9.932307e-001
      outer loop
         vertex 2.090000e-001 3.968474e+000 5.077213e+000
         vertex 8.459000e+000 3.968474e+000 5.077213e+000
         vertex 2.090000e-001 3.708002e+000 5.100000e+000
      endloop
   endfacet
   facet normal 0.000000e+000 -5.807914e-002 -9.983120e-001
      outer loop
         vertex 2.090000e-001 3.708002e+000 5.100000e+000
         vertex 8.459000e+000 3.968474e+000 5.077213e+000
         vertex 8.459000e+000 3.708002e+000 5.100000e+000
      endloop
   endfacet
   facet normal 0.000000e+000 5.807914e-002 -9.983120e-001
      outer loop
         vertex 2.090000e-001 3.708002e+000 5.100000e+000
         vertex 8.459000e+000 3.708002e+000 5.100000e+000
         vertex 2.090000e-001 3.447529e+000 5.077213e+000
      endloop
   endfacet
   facet normal 0.000000e+000 1.161583e-001 -9.932307e-001
      outer loop
         vertex 2.090000e-001 3.447529e+000 5.077213e+000
         vertex 8.459000e+000 3.708002e+000 5.100000e+000
         vertex 8.459000e+000 3.447529e+000 5.077213e+000
      endloop
   endfacet
   facet normal 0.000000e+000 2.305519e-001 -9.730600e-001
      outer loop
         vertex 2.090000e-001 3.447529e+000 5.077213e+000
         vertex 8.459000e+000 3.447529e+000 5.077213e+000
         vertex 2.090000e-001 3.194970e+000 5.009539e+000
      endloop
   endfacet
   facet normal 0.000000e+000 2.868663e-001 -9.579706e-001
      outer loop
         vertex 2.090000e-001 3.194970e+000 5.009539e+000
         vertex 8.459000e+000 3.447529e+000 5.077213e+000
         vertex 8.459000e+000 3.194970e+000 5.009539e+000
      endloop
   endfacet
   facet normal 0.000000e+000 3.960194e-001 -9.182422e-001
      outer loop
         vertex 2.090000e-001 3.194970e+000 5.009539e+000
         vertex 8.459000e+000 3.194970e+000 5.009539e+000
         vertex 2.090000e-001 2.958000e+000 4.899037e+000
      endloop
   endfacet
   facet normal 0.000000e+000 4.488580e-001 -8.936031e-001
      outer loop
         vertex 2.090000e-001 2.958000e+000 4.899037e+000
         vertex 8.459000e+000 3.194970e+000 5.009539e+000
         vertex 8.459000e+000 2.958000e+000 4.899037e+000
      endloop
   endfacet
   facet normal 0.000000e+000 5.494540e-001 -8.355240e-001
      outer loop
         vertex 2.090000e-001 2.958000e+000 4.899037e+000
         vertex 8.459000e+000 2.958000e+000 4.899037e+000
         vertex 2.090000e-001 2.743818e+000 4.749067e+000
      endloop
   endfacet
   facet normal 0.000000e+000 5.972114e-001 -8.020839e-001
      outer loop
         vertex 2.090000e-001 2.743818e+000 4.749067e+000
         vertex 8.459000e+000 2.958000e+000 4.899037e+000
         vertex 8.459000e+000 2.743818e+000 4.749067e+000
      endloop
   endfacet
   facet normal 0.000000e+000 6.861938e-001 -7.274188e-001
      outer loop
         vertex 2.090000e-001 2.743818e+000 4.749067e+000
         vertex 8.459000e+000 2.743818e+000 4.749067e+000
         vertex 2.090000e-001 2.558934e+000 4.564182e+000
      endloop
   endfacet
   facet normal 0.000000e+000 7.274188e-001 -6.861938e-001
      outer loop
         vertex 2.090000e-001 2.558934e+000 4.564182e+000
         vertex 8.459000e+000 2.743818e+000 4.749067e+000
         vertex 8.459000e+000 2.558934e+000 4.564182e+000
      endloop
   endfacet
   facet normal 0.000000e+000 8.020839e-001 -5.972114e-001
      outer loop
         vertex 2.090000e-001 2.558934e+000 4.564182e+000
         vertex 8.459000e+000 2.558934e+000 4.564182e+000
         vertex 2.090000e-001 2.408961e+000 4.350000e+000
      endloop
   endfacet
   facet normal 0.000000e+000 8.355240e-001 -5.494540e-001
      outer loop
         vertex 2.090000e-001 2.408961e+000 4.350000e+000
         vertex 8.459000e+000 2.558934e+000 4.564182e+000
         vertex 8.459000e+000 2.408961e+000 4.350000e+000
      endloop
   endfacet
   facet normal 0.000000e+000 8.936031e-001 -4.488580e-001
      outer loop
         vertex 2.090000e-001 2.408961e+000 4.350000e+000
         vertex 8.459000e+000 2.408961e+000 4.350000e+000
         vertex 2.090000e-001 2.298462e+000 4.113031e+000
      endloop
   endfacet
   facet normal 0.000000e+000 9.182422e-001 -3.960194e-001
      outer loop
         vertex 2.090000e-001 2.298462e+000 4.113031e+000
         vertex 8.459000e+000 2.408961e+000 4.350000e+000
         vertex 8.459000e+000 2.298462e+000 4.113031e+000
      endloop
   endfacet
   facet normal 0.000000e+000 9.579706e-001 -2.868663e-001
      outer loop
         vertex 2.090000e-001 2.298462e+000 4.113031e+000
         vertex 8.459000e+000 2.298462e+000 4.113031e+000
         vertex 2.090000e-001 2.230788e+000 3.860473e+000
      endloop
   endfacet
   facet normal 0.000000e+000 9.730600e-001 -2.305519e-001
      outer loop
         vertex 2.090000e-001 2.230788e+000 3.860473e+000
         vertex 8.459000e+000 2.298462e+000 4.113031e+000
         vertex 8.459000e+000 2.230788e+000 3.860473e+000
      endloop
   endfacet
   facet normal 0.000000e+000 9.932307e-001 -1.161583e-001
      outer loop
         vertex 2.090000e-001 2.230788e+000 3.860473e+000
         vertex 8.459000e+000 2.230788e+000 3.860473e+000
         vertex 2.090000e-001 2.208000e+000 3.600001e+000
      endloop
   endfacet
   facet normal 0.000000e+000 9.983120e-001 -5.807914e-002
      outer loop
         vertex 2.090000e-001 2.208000e+000 3.600001e+000
         vertex 8.459000e+000 2.230788e+000 3.860473e+000
         vertex 8.459000e+000 2.208000e+000 3.600001e+000
      endloop
   endfacet
   facet normal -0.000000e+000 9.983120e-001 5.807914e-002
      outer loop
         vertex 2.090000e-001 2.208000e+000 3.600001e+000
         vertex 8.459000e+000 2.208000e+000 3.600001e+000
         vertex 2.090000e-001 2.230788e+000 3.339529e+000
      endloop
   endfacet
   facet normal -0.000000e+000 9.932307e-001 1.161583e-001
      outer loop
         vertex 2.090000e-001 2.230788e+000 3.339529e+000
         vertex 8.459000e+000 2.208000e+000 3.600001e+000
         vertex 8.459000e+000 2.230788e+000 3.339529e+000
      endloop
   endfacet
   facet normal -0.000000e+000 9.730600e-001 2.305519e-001
      outer loop
         vertex 2.090000e-001 2.230788e+000 3.339529e+000
         vertex 8.459000e+000 2.230788e+000 3.339529e+000
         vertex 2.090000e-001 2.298462e+000 3.086970e+000
      endloop
   endfacet
   facet normal -0.000000e+000 9.579706e-001 2.868663e-001
      outer loop
         vertex 2.090000e-001 2.298462e+000 3.086970e+000
         vertex 8.459000e+000 2.230788e+000 3.339529e+000
         vertex 8.459000e+000 2.298462e+000 3.086970e+000
      endloop
   endfacet
   facet normal -0.000000e+000 9.182422e-001 3.960194e-001
      outer loop
         vertex 2.090000e-001 2.298462e+000 3.086970e+000
         vertex 8.459000e+000 2.298462e+000 3.086970e+000
         vertex 2.090000e-001 2.408961e+000 2.850000e+000
      endloop
   endfacet
   facet normal -0.000000e+000 8.936031e-001 4.488580e-001
      outer loop
         vertex 2.090000e-001 2.408961e+000 2.850000e+000
         vertex 8.459000e+000 2.298462e+000 3.086970e+000
         vertex 8.459000e+000 2.408961e+000 2.850000e+000
      endloop
   endfacet
   facet normal -0.000000e+000 8.355240e-001 5.494540e-001
      outer loop
         vertex 2.090000e-001 2.408961e+000 2.850000e+000
         vertex 8.459000e+000 2.408961e+000 2.850000e+000
         vertex 2.090000e-001 2.558934e+000 2.635818e+000
      endloop
   endfacet
   facet normal -0.000000e+000 8.020839e-001 5.972114e-001
      outer loop
         vertex 2.090000e-001 2.558934e+000 2.635818e+000
         vertex 8.459000e+000 2.408961e+000 2.850000e+000
         vertex 8.459000e+000 2.558934e+000 2.635818e+000
      endloop
   endfacet
   facet normal -0.000000e+000 7.274188e-001 6.861938e-001
      outer loop
         vertex 2.090000e-001 2.558934e+000 2.635818e+000
         vertex 8.459000e+000 2.558934e+000 2.635818e+000
         vertex 2.090000e-001 2.743818e+000 2.450933e+000
      endloop
   endfacet
   facet normal -0.000000e+000 6.861938e-001 7.274188e-001
      outer loop
         vertex 2.090000e-001 2.743818e+000 2.450933e+000
         vertex 8.459000e+000 2.558934e+000 2.635818e+000
         vertex 8.459000e+000 2.743818e+000 2.450933e+000
      endloop
   endfacet
   facet normal -0.000000e+000 5.972114e-001 8.020839e-001
      outer loop
         vertex 2.090000e-001 2.743818e+000 2.450933e+000
         vertex 8.459000e+000 2.743818e+000 2.450933e+000
         vertex 2.090000e-001 2.958000e+000 2.300962e+000
      endloop
   endfacet
   facet normal -0.000000e+000 5.494540e-001 8.355240e-001
      outer loop
         vertex 2.090000e-001 2.958000e+000 2.300962e+000
         vertex 8.459000e+000 2.743818e+000 2.450933e+000
         vertex 8.459000e+000 2.958000e+000 2.300962e+000
      endloop
   endfacet
   facet normal -0.000000e+000 4.488580e-001 8.936031e-001
      outer loop
         vertex 2.090000e-001 2.958000e+000 2.300962e+000
         vertex 8.459000e+000 2.958000e+000 2.300962e+000
         vertex 2.090000e-001 3.194970e+000 2.190461e+000
      endloop
   endfacet
   facet normal -0.000000e+000 3.960194e-001 9.182422e-001
      outer loop
         vertex 2.090000e-001 3.194970e+000 2.190461e+000
         vertex 8.459000e+000 2.958000e+000 2.300962e+000
         vertex 8.459000e+000 3.194970e+000 2.190461e+000
      endloop
   endfacet
   facet normal -0.000000e+000 2.868663e-001 9.579706e-001
      outer loop
         vertex 2.090000e-001 3.194970e+000 2.190461e+000
         vertex 8.459000e+000 3.194970e+000 2.190461e+000
         vertex 2.090000e-001 3.447529e+000 2.122788e+000
      endloop
   endfacet
   facet normal -0.000000e+000 2.305519e-001 9.730600e-001
      outer loop
         vertex 2.090000e-001 3.447529e+000 2.122788e+000
         vertex 8.459000e+000 3.194970e+000 2.190461e+000
         vertex 8.459000e+000 3.447529e+000 2.122788e+000
      endloop
   endfacet
   facet normal -0.000000e+000 1.161583e-001 9.932307e-001
      outer loop
         vertex 2.090000e-001 3.447529e+000 2.122788e+000
         vertex 8.459000e+000 3.447529e+000 2.122788e+000
         vertex 2.090000e-001 3.708002e+000 2.100000e+000
      endloop
   endfacet
   facet normal -0.000000e+000 5.807914e-002 9.983120e-001
      outer loop
         vertex 2.090000e-001 3.708002e+000 2.100000e+000
         vertex 8.459000e+000 3.447529e+000 2.122788e+000
         vertex 8.459000e+000 3.708002e+000 2.100000e+000
      endloop
   endfacet
   facet normal 0.000000e+000 -5.807914e-002 9.983120e-001
      outer loop
         vertex 2.090000e-001 3.708002e+000 2.100000e+000
         vertex 8.459000e+000 3.708002e+000 2.100000e+000
         vertex 2.090000e-001 3.968474e+000 2.122788e+000
      endloop
   endfacet
   facet normal 0.000000e+000 -1.161583e-001 9.932307e-001
      outer loop
         vertex 2.090000e-001 3.968474e+000 2.122788e+000
         vertex 8.459000e+000 3.708002e+000 2.100000e+000
         vertex 8.459000e+000 3.968474e+000 2.122788e+000
      endloop
   endfacet
   facet normal 0.000000e+000 -2.305519e-001 9.730600e-001
      outer loop
         vertex 2.090000e-001 3.968474e+000 2.122788e+000
         vertex 8.459000e+000 3.968474e+000 2.122788e+000
         vertex 2.090000e-001 4.221030e+000 2.190461e+000
      endloop
   endfacet
   facet normal 0.000000e+000 -2.868663e-001 9.579706e-001
      outer loop
         vertex 2.090000e-001 4.221030e+000 2.190461e+000
         vertex 8.459000e+000 3.968474e+000 2.122788e+000
         vertex 8.459000e+000 4.221030e+000 2.190461e+000
      endloop
   endfacet
   facet normal 0.000000e+000 -3.960194e-001 9.182422e-001
      outer loop
         vertex 2.090000e-001 4.221030e+000 2.190461e+000
         vertex 8.459000e+000 4.221030e+000 2.190461e+000
         vertex 2.090000e-001 4.458000e+000 2.300962e+000
      endloop
   endfacet
   facet normal 0.000000e+000 -4.488580e-001 8.936031e-001
      outer loop
         vertex 2.090000e-001 4.458000e+000 2.300962e+000
         vertex 8.459000e+000 4.221030e+000 2.190461e+000
         vertex 8.459000e+000 4.458000e+000 2.300962e+000
      endloop
   endfacet
   facet normal 0.000000e+000 -5.494540e-001 8.355240e-001
      outer loop
         vertex 2.090000e-001 4.458000e+000 2.300962e+000
         vertex 8.459000e+000 4.458000e+000 2.300962e+000
         vertex 2.090000e-001 4.672181e+000 2.450933e+000
      endloop
   endfacet
   facet normal 0.000000e+000 -5.972114e-001 8.020839e-001
      outer loop
         vertex 2.090000e-001 4.672181e+000 2.450933e+000
         vertex 8.459000e+000 4.458000e+000 2.300962e+000
         vertex 8.459000e+000 4.672181e+000 2.450933e+000
      endloop
   endfacet
   facet normal 0.000000e+000 -6.861938e-001 7.274188e-001
      outer loop
         vertex 2.090000e-001 4.672181e+000 2.450933e+000
         vertex 8.459000e+000 4.672181e+000 2.450933e+000
         vertex 2.090000e-001 4.857068e+000 2.635818e+000
      endloop
   endfacet
   facet normal 0.000000e+000 -7.274188e-001 6.861938e-001
      outer loop
         vertex 2.090000e-001 4.857068e+000 2.635818e+000
         vertex 8.459000e+000 4.672181e+000 2.450933e+000
         vertex 8.459000e+000 4.857068e+000 2.635818e+000
      endloop
   endfacet
   facet normal 0.000000e+000 -8.020839e-001 5.972114e-001
      outer loop
         vertex 2.090000e-001 4.857068e+000 2.635818e+000
         vertex 8.459000e+000 4.857068e+000 2.635818e+000
         vertex 2.090000e-001 5.007037e+000 2.850000e+000
      endloop
   endfacet
   facet normal 0.000000e+000 -8.052605e-001 5.929212e-001
      outer loop
         vertex 2.090000e-001 5.007037e+000 2.850000e+000
         vertex 8.459000e+000 4.857068e+000 2.635818e+000
         vertex 8.459000e+000 4.872334e+000 2.654309e+000
      endloop
   endfacet
   facet normal 0.000000e+000 -8.384308e-001 5.450081e-001
      outer loop
         vertex 2.090000e-001 5.007037e+000 2.850000e+000
         vertex 8.459000e+000 4.872334e+000 2.654309e+000
         vertex 8.459000e+000 5.007037e+000 2.850000e+000
      endloop
   endfacet
endsolid